<?xml version="1.0" standalone="no"?>
<!DOCTYPE svg PUBLIC "-//W3C//DTD SVG 20010904//EN"
 "http://www.w3.org/TR/2001/REC-SVG-20010904/DTD/svg10.dtd">
<svg version="1.0" xmlns="http://www.w3.org/2000/svg"
 width="512.000000pt" height="512.000000pt" viewBox="0 0 512.000000 512.000000"
 preserveAspectRatio="xMidYMid meet">
<metadata>
Created by potrace 1.14, written by Peter Selinger 2001-2017
</metadata>
<g transform="translate(0.000000,512.000000) scale(0.100000,-0.100000)"
fill="#000000" stroke="none">
<path d="M1105 4599 c-151 -21 -254 -81 -356 -206 -15 -18 -61 -108 -66 -128
-1 -5 -7 -28 -13 -50 -22 -76 -17 -219 9 -280 5 -11 28 -64 51 -117 23 -53 41
-100 40 -104 -1 -4 2 -10 7 -13 5 -3 25 -42 44 -86 19 -44 37 -81 42 -83 4 -2
7 -9 7 -16 0 -7 51 -125 114 -262 124 -274 146 -322 176 -389 11 -25 30 -66
42 -92 12 -27 21 -51 20 -55 -1 -3 5 -12 13 -18 8 -7 15 -19 15 -27 0 -7 16
-46 36 -86 19 -39 34 -72 33 -72 -2 0 17 -42 66 -150 13 -27 47 -102 75 -165
29 -63 66 -144 83 -180 37 -82 70 -153 72 -160 6 -19 61 -139 127 -280 22 -47
41 -89 42 -95 1 -5 16 -39 33 -75 17 -36 41 -87 53 -115 12 -27 32 -72 45
-100 34 -74 75 -164 95 -210 10 -22 33 -74 53 -115 19 -41 37 -85 41 -97 4
-13 11 -23 16 -23 5 0 11 -8 14 -18 4 -10 25 -38 49 -63 74 -77 121 -108 212
-139 58 -20 88 -25 170 -24 112 2 181 22 270 79 50 33 135 112 135 126 0 4 6
14 13 21 7 7 20 29 29 48 9 19 30 65 47 101 17 36 31 71 31 77 0 7 4 12 9 12
5 0 12 11 15 25 3 13 25 64 47 112 22 48 50 108 61 133 24 53 67 148 94 205
10 22 19 42 19 45 1 3 11 28 24 55 13 28 34 74 47 103 13 28 36 78 51 110 15
31 28 59 29 62 2 11 24 59 73 164 28 59 51 110 51 111 0 5 89 198 100 217 6
10 10 25 10 33 0 8 5 15 10 15 6 0 10 9 10 20 0 11 4 20 8 20 5 0 9 6 9 13 0
6 16 46 36 87 32 69 71 153 108 238 7 17 18 32 22 32 5 0 6 4 2 9 -3 6 4 26
15 45 11 20 17 36 13 36 -3 0 1 8 10 18 8 9 16 20 16 25 1 4 8 24 17 45 10 20
18 39 18 42 1 3 4 10 8 15 3 6 24 51 46 100 22 50 54 122 72 160 53 115 60
133 60 144 0 6 4 11 8 11 4 0 14 16 21 36 7 20 33 79 58 133 24 53 48 105 53
116 5 11 26 56 46 100 20 44 42 96 50 115 36 94 38 253 2 340 -22 54 -63 130
-70 130 -4 0 -8 5 -8 12 0 7 -25 35 -55 64 -201 187 -516 181 -710 -13 -33
-33 -95 -115 -95 -126 0 -2 -9 -25 -20 -51 -12 -25 -20 -49 -20 -52 1 -4 -3
-10 -10 -14 -6 -4 -13 -13 -15 -21 -8 -35 -18 -59 -24 -59 -4 0 -8 -6 -8 -12
0 -7 -17 -49 -38 -93 -21 -44 -54 -118 -75 -165 -21 -47 -49 -111 -64 -142
-14 -32 -37 -82 -50 -110 -13 -29 -37 -82 -53 -118 -17 -36 -43 -92 -57 -125
-26 -56 -58 -127 -102 -220 -10 -22 -18 -44 -19 -50 0 -5 -3 -12 -6 -15 -9 -8
-69 -141 -69 -153 0 -6 -7 -18 -16 -28 -8 -9 -17 -23 -18 -31 -5 -24 -23 -68
-35 -88 -9 -13 -51 -105 -56 -120 -1 -3 -10 -23 -20 -45 -10 -22 -19 -42 -20
-45 -1 -5 -36 -81 -89 -195 -18 -38 -36 -80 -40 -92 -4 -13 -11 -23 -16 -23
-9 0 -26 26 -29 42 -2 10 -33 83 -69 160 -16 34 -39 84 -51 111 -44 98 -65
144 -96 212 -18 39 -33 75 -35 80 -1 6 -7 19 -13 30 -6 11 -12 22 -12 25 -1 3
-11 25 -22 50 -11 25 -53 117 -93 205 -40 88 -77 166 -82 173 -6 6 -8 12 -5
12 3 0 -9 30 -27 68 -18 37 -39 84 -47 105 -7 20 -17 37 -21 37 -4 0 -8 6 -8
13 0 7 -9 31 -19 53 -10 21 -40 86 -66 144 -26 58 -54 121 -63 140 -19 42 -18
39 -27 68 -4 12 -12 22 -18 22 -6 0 -8 3 -5 6 10 9 -147 340 -183 386 -50 64
-107 112 -184 153 -63 34 -200 56 -280 44z"/>
</g>
</svg>
