<svg width="494" height="240" viewBox="0 0 494 240" fill="none" xmlns="http://www.w3.org/2000/svg">
<rect width="494" height="240" fill="#32373E"/>
<path d="M117.4 106.096H121.336V106.432C121.144 106.624 121.016 106.832 120.952 107.056C120.92 107.28 120.904 107.664 120.904 108.208V118.864H132.616V106.096H136.552V106.432C136.36 106.624 136.232 106.832 136.168 107.056C136.136 107.28 136.12 107.664 136.12 108.208V136H132.568V121.744H120.904V136H117.4V106.096ZM152.056 136.48C148.856 136.48 146.264 135.504 144.28 133.552C142.328 131.6 141.352 128.784 141.352 125.104C141.352 122.608 141.8 120.512 142.696 118.816C143.624 117.088 144.84 115.776 146.344 114.88C147.88 113.984 149.576 113.536 151.432 113.536C153.096 113.536 154.6 113.904 155.944 114.64C157.288 115.376 158.36 116.512 159.16 118.048C159.96 119.584 160.36 121.552 160.36 123.952C160.36 124.208 160.344 124.48 160.312 124.768C160.312 125.024 160.296 125.28 160.264 125.536H144.664C144.792 128.352 145.576 130.416 147.016 131.728C148.488 133.04 150.2 133.696 152.152 133.696C154.456 133.696 156.344 132.88 157.816 131.248L159.736 133.12C157.88 135.36 155.32 136.48 152.056 136.48ZM144.808 122.848H156.856C156.856 120.8 156.328 119.184 155.272 118C154.248 116.784 152.888 116.176 151.192 116.176C149.688 116.176 148.328 116.72 147.112 117.808C145.896 118.864 145.128 120.544 144.808 122.848ZM166.792 136V133.216H173.272V106.864H167.08V104.08H176.776V133.216H183.208V136H166.792ZM190.792 136V133.216H197.272V106.864H191.08V104.08H200.776V133.216H207.208V136H190.792ZM223 136.384C221.016 136.384 219.256 135.904 217.72 134.944C216.216 133.952 215.032 132.608 214.168 130.912C213.304 129.184 212.872 127.216 212.872 125.008C212.872 122.768 213.304 120.8 214.168 119.104C215.032 117.376 216.216 116.032 217.72 115.072C219.256 114.08 221.016 113.584 223 113.584C224.984 113.584 226.728 114.08 228.232 115.072C229.768 116.032 230.968 117.376 231.832 119.104C232.696 120.8 233.128 122.768 233.128 125.008C233.128 127.216 232.696 129.184 231.832 130.912C230.968 132.608 229.768 133.952 228.232 134.944C226.728 135.904 224.984 136.384 223 136.384ZM223 133.504C224.28 133.504 225.4 133.136 226.36 132.4C227.32 131.664 228.072 130.656 228.616 129.376C229.192 128.096 229.48 126.624 229.48 124.96C229.48 122.464 228.872 120.432 227.656 118.864C226.44 117.264 224.888 116.464 223 116.464C221.112 116.464 219.56 117.264 218.344 118.864C217.128 120.432 216.52 122.464 216.52 124.96C216.52 126.624 216.792 128.096 217.336 129.376C217.912 130.656 218.68 131.664 219.64 132.4C220.632 133.136 221.752 133.504 223 133.504ZM264.616 136L259.816 106.096H262.936L266.152 126.304L270.952 108.304H272.008L276.856 126.4L279.592 106.096H282.424L277.672 136H276.376L271.24 116.464L266.008 136H264.616ZM295 136.384C293.016 136.384 291.256 135.904 289.72 134.944C288.216 133.952 287.032 132.608 286.168 130.912C285.304 129.184 284.872 127.216 284.872 125.008C284.872 122.768 285.304 120.8 286.168 119.104C287.032 117.376 288.216 116.032 289.72 115.072C291.256 114.08 293.016 113.584 295 113.584C296.984 113.584 298.728 114.08 300.232 115.072C301.768 116.032 302.968 117.376 303.832 119.104C304.696 120.8 305.128 122.768 305.128 125.008C305.128 127.216 304.696 129.184 303.832 130.912C302.968 132.608 301.768 133.952 300.232 134.944C298.728 135.904 296.984 136.384 295 136.384ZM295 133.504C296.28 133.504 297.4 133.136 298.36 132.4C299.32 131.664 300.072 130.656 300.616 129.376C301.192 128.096 301.48 126.624 301.48 124.96C301.48 122.464 300.872 120.432 299.656 118.864C298.44 117.264 296.888 116.464 295 116.464C293.112 116.464 291.56 117.264 290.344 118.864C289.128 120.432 288.52 122.464 288.52 124.96C288.52 126.624 288.792 128.096 289.336 129.376C289.912 130.656 290.68 131.664 291.64 132.4C292.632 133.136 293.752 133.504 295 133.504ZM312.712 114.064H316.312L316.216 118.096C316.824 116.624 317.768 115.504 319.048 114.736C320.328 113.936 321.704 113.536 323.176 113.536C325.512 113.536 327.448 114.336 328.984 115.936L327.448 118.624L327.256 119.056L326.92 118.864C326.856 118.608 326.76 118.368 326.632 118.144C326.504 117.92 326.232 117.648 325.816 117.328C325.304 117.008 324.824 116.8 324.376 116.704C323.96 116.576 323.48 116.512 322.936 116.512C321.88 116.512 320.824 116.784 319.768 117.328C318.744 117.872 317.896 118.72 317.224 119.872C316.552 121.024 316.216 122.528 316.216 124.384V136.048H312.712V114.064ZM334.792 136V133.216H341.272V106.864H335.08V104.08H344.776V133.216H351.208V136H334.792ZM366.232 136.48C364.76 136.48 363.32 136.064 361.912 135.232C360.536 134.368 359.4 133.072 358.504 131.344C357.608 129.616 357.16 127.44 357.16 124.816C357.16 122.128 357.624 119.952 358.552 118.288C359.48 116.624 360.648 115.408 362.056 114.64C363.496 113.872 364.952 113.488 366.424 113.488C367.928 113.488 369.224 113.84 370.312 114.544C371.432 115.216 372.264 116.128 372.808 117.28V104.08H376.456V104.416C376.264 104.608 376.136 104.816 376.072 105.04C376.04 105.264 376.024 105.648 376.024 106.192L376.072 132.592C376.072 133.168 376.088 133.744 376.12 134.32C376.184 134.864 376.328 135.424 376.552 136H373.144C372.92 135.424 372.776 134.864 372.712 134.32C372.68 133.744 372.664 133.168 372.664 132.592C371.96 133.776 371.064 134.72 369.976 135.424C368.888 136.128 367.64 136.48 366.232 136.48ZM366.76 133.456C368.168 133.456 369.288 133.072 370.12 132.304C370.984 131.536 371.592 130.512 371.944 129.232C372.328 127.92 372.52 126.48 372.52 124.912C372.52 122.448 372.04 120.4 371.08 118.768C370.12 117.136 368.584 116.32 366.472 116.32C364.52 116.32 363.032 117.04 362.008 118.48C361.016 119.92 360.52 121.856 360.52 124.288C360.52 127.04 361.048 129.264 362.104 130.96C363.16 132.624 364.712 133.456 366.76 133.456Z" fill="#6EDD8D"/>
</svg>
